<?xml version="1.0"?>
<svg xmlns="http://www.w3.org/2000/svg" viewBox="0 0 50 50">
    <path style="line-height:normal;text-indent:0;text-align:start;
    text-decoration-line:none;text-decoration-style:solid;text-decoration-color:#000;text-transform:none;block-progression:tb;isolation:auto;mix-blend-mode:normal" d="M 12 2 C 8.6983746 2 6 4.6983746 6 8 L 6 42.417969 C 6 45.591903 8.832306 48 12 48 L 44 48 L 44 46 L 12 46 C 9.841694 46 8 44.378035 8 42.417969 C 8 40.457903 9.8001368 39 12 39 L 44 39 L 44 2 L 12 2 z M 12 4 L 42 4 L 42 37 L 12 37 C 10.506931 37 9.0923623 37.537598 8 38.417969 L 8 8 C 8 5.7796254 9.7796254 4 12 4 z M 25 8 L 25 10 L 27 10 L 27 8 L 25 8 z M 25 12 L 25 14 L 27 14 L 27 12 L 25 12 z M 25 16 L 25 18 L 27 18 L 27 16 L 25 16 z M 25 20 L 25 29.585938 L 20.707031 25.292969 L 19.292969 26.707031 L 25.292969 32.707031 A 1.0001 1.0001 0 0 0 26.707031 32.707031 L 32.707031 26.707031 L 31.292969 25.292969 L 27 29.585938 L 27 20 L 25 20 z" font-weight="400" font-family="sans-serif" white-space="normal" overflow="visible"/>
</svg>
